<svg width="50" height="32" viewBox="0 0 50 32" fill="none" xmlns="http://www.w3.org/2000/svg">
<path d="M45.8329 14.7782L38.4152 7.36001L31.5607 0.505898C30.8861 -0.168633 29.7934 -0.168633 29.1189 0.505898L13.626 15.9988L18.4044 20.7777L23.1824 15.9997L23.182 15.9988L30.3396 8.84122L33.7131 12.2143L37.4976 15.9988L30.3396 23.1569L27.9566 20.7735L23.1786 25.5519L29.1189 31.4922C29.7934 32.1663 30.8861 32.1663 31.5607 31.4922L38.2563 24.7961L45.8329 17.2195C46.507 16.5454 46.507 15.4523 45.8329 14.7782Z" fill="#3844FF"/>
<path d="M27.9605 11.2232L27.9675 11.227L27.9714 11.2232L32.7433 15.9978L20.821 27.9209L20.8202 27.917L17.2456 31.4912C16.5719 32.1689 15.4787 32.1689 14.8045 31.4912L0.531671 17.2215C0.393427 17.0821 0.285001 16.9271 0.202907 16.7568C-0.145608 16.1062 -0.0453137 15.2736 0.504952 14.7238L3.99087 11.32L14.8045 0.508275C15.4787 -0.165519 16.5719 -0.165519 17.2456 0.508275L23.1812 6.44079L18.4035 11.2193L16.0251 8.84164L8.89757 15.9707L16.0417 23.1424L19.4479 19.7346L27.9605 11.2232Z" fill="#38C9FF"/>
<path d="M53.8828 23.0412V8.79276H57.1546V20.1895H61.1752V23.0412H53.8828Z" fill="#323232"/>
<path d="M62.0547 18.1327C62.0547 17.4107 62.1631 16.7384 62.3799 16.1157C62.6032 15.493 62.9317 14.9498 63.3653 14.4862C63.8055 14.0159 64.3409 13.6449 64.9716 13.3733C65.6089 13.1017 66.3381 12.9659 67.1594 12.9659C67.9412 12.9659 68.6441 13.0885 69.2683 13.3336C69.8924 13.5787 70.4212 13.9165 70.8549 14.3471C71.295 14.771 71.6334 15.2777 71.8699 15.8673C72.1064 16.4568 72.2246 17.0927 72.2246 17.775C72.2246 17.9671 72.2181 18.1327 72.2049 18.2718C72.1918 18.4109 72.1655 18.6163 72.1261 18.8879H65.1589C65.1589 19.186 65.195 19.4675 65.2673 19.7324C65.3461 19.9974 65.4644 20.2292 65.622 20.428C65.7863 20.6267 66.0031 20.7824 66.2724 20.895C66.5418 21.0076 66.8703 21.0639 67.2579 21.0639C67.8098 21.0639 68.2237 20.9579 68.4996 20.7459C68.7755 20.5273 68.966 20.2624 69.0712 19.951H72.1064C72.0276 20.4147 71.86 20.8486 71.6038 21.2527C71.3542 21.6567 71.029 22.0111 70.6282 22.3158C70.2274 22.6205 69.7478 22.8623 69.1894 23.0412C68.631 23.22 68.0003 23.3094 67.2973 23.3094C66.4498 23.3094 65.6976 23.177 65.0406 22.912C64.3902 22.647 63.8416 22.2794 63.3949 21.8091C62.9547 21.3388 62.6197 20.789 62.3897 20.1597C62.1664 19.5304 62.0547 18.8547 62.0547 18.1327ZM65.1589 17.0994H69.1993C69.1993 16.5032 69.012 16.0329 68.6376 15.6884C68.2697 15.3374 67.7835 15.1618 67.1791 15.1618C66.6009 15.1618 66.1181 15.3307 65.7304 15.6686C65.3494 15.9998 65.1589 16.4767 65.1589 17.0994Z" fill="#323232"/>
<path d="M73.8235 18.1327C73.8235 17.3974 73.9384 16.7152 74.1684 16.0859C74.4049 15.4566 74.7301 14.9167 75.144 14.4663C75.5644 14.0092 76.0539 13.6482 76.6123 13.3833C77.1708 13.1183 77.7752 12.9858 78.4256 12.9858C79.1548 12.9858 79.7855 13.1415 80.3177 13.4528C80.8564 13.7641 81.2604 14.1583 81.5298 14.6352V13.2342H84.6143V23.0412H81.5298V21.66C81.2867 22.1105 80.8958 22.4947 80.3571 22.8126C79.8184 23.1306 79.1745 23.2896 78.4256 23.2896C77.7817 23.2896 77.1773 23.1571 76.6123 22.8921C76.0539 22.6272 75.5644 22.2662 75.144 21.8091C74.7301 21.352 74.4049 20.8089 74.1684 20.1796C73.9384 19.5503 73.8235 18.868 73.8235 18.1327ZM76.8883 18.1327C76.8883 18.4705 76.9441 18.7951 77.0558 19.1065C77.174 19.4112 77.3317 19.6761 77.5288 19.9014C77.7325 20.1199 77.9755 20.2988 78.258 20.4379C78.5405 20.5704 78.8559 20.6366 79.2041 20.6366C79.5523 20.6366 79.8676 20.5704 80.1501 20.4379C80.4392 20.2988 80.6823 20.1199 80.8794 19.9014C81.083 19.6761 81.2407 19.4112 81.3524 19.1065C81.4707 18.8018 81.5298 18.4772 81.5298 18.1327C81.5298 17.7949 81.4707 17.4769 81.3524 17.1789C81.2407 16.8808 81.083 16.6158 80.8794 16.384C80.6823 16.1521 80.4425 15.97 80.16 15.8375C79.8775 15.705 79.5589 15.6388 79.2041 15.6388C78.8559 15.6388 78.5405 15.705 78.258 15.8375C77.9755 15.97 77.7325 16.1521 77.5288 16.384C77.3317 16.6158 77.174 16.8808 77.0558 17.1789C76.9441 17.4769 76.8883 17.7949 76.8883 18.1327Z" fill="#323232"/>
<path d="M86.7354 18.1128C86.7354 17.3776 86.8471 16.6986 87.0705 16.0759C87.3004 15.4533 87.619 14.9167 88.0264 14.4663C88.4402 14.0092 88.9297 13.6482 89.4947 13.3833C90.0597 13.1183 90.6805 12.9858 91.3572 12.9858C92.0405 12.9858 92.6547 13.1249 93.2 13.4031C93.7453 13.6813 94.1658 14.092 94.4614 14.6352V13.2342H97.5459V22.9816C97.5459 24.6641 97.109 25.8763 96.2353 26.6182C95.3615 27.3667 94.0311 27.741 92.2441 27.741C91.2455 27.741 90.4046 27.635 89.7213 27.423C89.0447 27.2177 88.4961 26.9361 88.0756 26.5784C87.6617 26.2274 87.3595 25.81 87.169 25.3265C86.985 24.8495 86.8799 24.3395 86.8537 23.7963H89.9381C89.9907 24.2335 90.1878 24.6177 90.5294 24.9489C90.8776 25.2801 91.4163 25.4457 92.1456 25.4457C92.8157 25.4457 93.3676 25.2635 93.8012 24.8992C94.2413 24.5415 94.4614 23.9619 94.4614 23.1604V21.6203C94.2052 22.0376 93.8176 22.3953 93.2986 22.6934C92.7796 22.9915 92.139 23.1405 91.3769 23.1405C90.72 23.1405 90.1057 23.0213 89.5341 22.7828C88.9691 22.5377 88.4764 22.19 88.0559 21.7395C87.642 21.2891 87.3168 20.7559 87.0803 20.1398C86.8504 19.5238 86.7354 18.8481 86.7354 18.1128ZM89.8199 18.1327C89.8199 18.4705 89.8757 18.7951 89.9874 19.1065C90.1057 19.4112 90.2634 19.6761 90.4604 19.9014C90.6641 20.1199 90.9072 20.2988 91.1897 20.4379C91.4722 20.5704 91.7908 20.6366 92.1456 20.6366C92.4806 20.6366 92.7927 20.5737 93.0818 20.4478C93.3708 20.3154 93.6139 20.1365 93.811 19.9113C94.0147 19.6794 94.1724 19.4145 94.284 19.1164C94.4023 18.8183 94.4614 18.4904 94.4614 18.1327C94.4614 17.7949 94.4023 17.4769 94.284 17.1789C94.1724 16.8808 94.0147 16.6158 93.811 16.384C93.6139 16.1521 93.3741 15.97 93.0916 15.8375C92.8091 15.705 92.4938 15.6388 92.1456 15.6388C91.7974 15.6388 91.4755 15.705 91.1798 15.8375C90.8908 15.97 90.6444 16.1521 90.4407 16.384C90.2436 16.6158 90.0893 16.8841 89.9776 17.1888C89.8725 17.4935 89.8199 17.8081 89.8199 18.1327Z" fill="#323232"/>
<path d="M100.091 19.0568V13.2342H103.156V18.2619C103.156 18.964 103.28 19.537 103.53 19.9808C103.78 20.418 104.226 20.6366 104.87 20.6366C105.514 20.6366 105.987 20.4147 106.289 19.9709C106.598 19.5205 106.753 18.9144 106.753 18.1526V13.2342H109.837V23.0412H106.753V21.6402C106.483 22.1569 106.073 22.5609 105.521 22.8524C104.969 23.1438 104.309 23.2896 103.54 23.2896C102.87 23.2896 102.318 23.1836 101.884 22.9716C101.457 22.7596 101.109 22.4914 100.84 22.1668C100.531 21.7892 100.327 21.352 100.229 20.8552C100.137 20.3584 100.091 19.7589 100.091 19.0568Z" fill="#323232"/>
<path d="M111.948 18.1327C111.948 17.4107 112.057 16.7384 112.273 16.1157C112.497 15.493 112.825 14.9498 113.259 14.4862C113.699 14.0159 114.235 13.6449 114.865 13.3733C115.503 13.1017 116.232 12.9659 117.053 12.9659C117.835 12.9659 118.538 13.0885 119.162 13.3336C119.786 13.5787 120.315 13.9165 120.748 14.3471C121.189 14.771 121.527 15.2777 121.763 15.8673C122 16.4568 122.118 17.0927 122.118 17.775C122.118 17.9671 122.112 18.1327 122.099 18.2718C122.085 18.4109 122.059 18.6163 122.02 18.8879H115.052C115.052 19.186 115.089 19.4675 115.161 19.7324C115.24 19.9974 115.358 20.2292 115.516 20.428C115.68 20.6267 115.897 20.7824 116.166 20.895C116.435 21.0076 116.764 21.0639 117.152 21.0639C117.703 21.0639 118.117 20.9579 118.393 20.7459C118.669 20.5273 118.86 20.2624 118.965 19.951H122C121.921 20.4147 121.754 20.8486 121.497 21.2527C121.248 21.6567 120.923 22.0111 120.522 22.3158C120.121 22.6205 119.641 22.8623 119.083 23.0412C118.525 23.22 117.894 23.3094 117.191 23.3094C116.343 23.3094 115.591 23.177 114.934 22.912C114.284 22.647 113.735 22.2794 113.289 21.8091C112.848 21.3388 112.513 20.789 112.283 20.1597C112.06 19.5304 111.948 18.8547 111.948 18.1327ZM115.052 17.0994H119.093C119.093 16.5032 118.906 16.0329 118.531 15.6884C118.163 15.3374 117.677 15.1618 117.073 15.1618C116.495 15.1618 116.012 15.3307 115.624 15.6686C115.243 15.9998 115.052 16.4767 115.052 17.0994Z" fill="#323232"/>
<path d="M123.678 19.7622H126.703C126.703 20.2789 126.848 20.6499 127.137 20.8751C127.426 21.1003 127.797 21.2129 128.25 21.2129C128.625 21.2129 128.93 21.1434 129.167 21.0043C129.41 20.8585 129.531 20.6234 129.531 20.2988C129.531 20.1067 129.479 19.951 129.374 19.8318C129.275 19.7059 129.121 19.5966 128.91 19.5039C128.7 19.4045 128.431 19.3052 128.102 19.2058C127.774 19.1065 127.38 18.9806 126.92 18.8282C126.506 18.6958 126.115 18.56 125.747 18.4209C125.386 18.2751 125.067 18.0963 124.791 17.8843C124.515 17.6723 124.298 17.414 124.141 17.1093C123.99 16.8046 123.914 16.427 123.914 15.9766C123.914 15.4599 124.016 15.0128 124.22 14.6352C124.423 14.2576 124.709 13.9463 125.077 13.7012C125.445 13.4561 125.885 13.274 126.398 13.1547C126.91 13.0289 127.475 12.9659 128.093 12.9659C128.848 12.9659 129.498 13.052 130.044 13.2243C130.589 13.3965 131.036 13.6317 131.384 13.9297C131.732 14.2278 131.988 14.5789 132.153 14.983C132.323 15.387 132.409 15.8209 132.409 16.2846H129.364C129.364 15.8805 129.259 15.5659 129.048 15.3407C128.845 15.1154 128.533 15.0028 128.112 15.0028C127.79 15.0028 127.514 15.0757 127.284 15.2214C127.055 15.3605 126.94 15.5725 126.94 15.8573C126.94 16.0494 126.992 16.2051 127.097 16.3243C127.209 16.437 127.37 16.5396 127.58 16.6324C127.79 16.7251 128.05 16.8212 128.359 16.9205C128.667 17.0133 129.022 17.1259 129.423 17.2583C129.857 17.3776 130.261 17.5101 130.635 17.6558C131.009 17.8015 131.338 17.9804 131.62 18.1923C131.91 18.3977 132.136 18.6593 132.3 18.9773C132.471 19.2886 132.557 19.6861 132.557 20.1696C132.557 20.7393 132.438 21.2262 132.202 21.6302C131.965 22.0277 131.647 22.3523 131.246 22.604C130.852 22.8557 130.392 23.0345 129.866 23.1405C129.341 23.2531 128.789 23.3094 128.211 23.3094C126.772 23.3094 125.655 23.008 124.86 22.4053C124.072 21.7958 123.678 20.9148 123.678 19.7622Z" fill="#323232"/>
<path d="M139.056 18.1327C139.056 17.4306 139.177 16.7682 139.42 16.1455C139.67 15.5228 140.028 14.9763 140.494 14.506C140.961 14.0357 141.526 13.6615 142.189 13.3833C142.853 13.105 143.608 12.9659 144.456 12.9659C145.303 12.9659 146.059 13.105 146.723 13.3833C147.393 13.6615 147.958 14.0357 148.418 14.506C148.884 14.9763 149.239 15.5228 149.482 16.1455C149.725 16.7682 149.846 17.4306 149.846 18.1327C149.846 18.8349 149.725 19.5006 149.482 20.1299C149.239 20.7525 148.884 21.299 148.418 21.7693C147.958 22.2397 147.393 22.6139 146.723 22.8921C146.059 23.1703 145.303 23.3094 144.456 23.3094C143.608 23.3094 142.853 23.1703 142.189 22.8921C141.526 22.6139 140.961 22.2397 140.494 21.7693C140.028 21.299 139.67 20.7525 139.42 20.1299C139.177 19.5072 139.056 18.8415 139.056 18.1327ZM142.14 18.1327C142.14 18.4838 142.193 18.8117 142.298 19.1164C142.409 19.4145 142.564 19.6794 142.761 19.9113C142.965 20.1365 143.208 20.3154 143.49 20.4478C143.773 20.5737 144.088 20.6366 144.436 20.6366C144.784 20.6366 145.103 20.5737 145.392 20.4478C145.688 20.3154 145.934 20.1365 146.131 19.9113C146.335 19.6794 146.493 19.4145 146.604 19.1164C146.723 18.8183 146.782 18.4904 146.782 18.1327C146.782 17.7949 146.723 17.4736 146.604 17.1689C146.493 16.8642 146.335 16.5992 146.131 16.374C145.934 16.1488 145.691 15.97 145.402 15.8375C145.113 15.705 144.791 15.6388 144.436 15.6388C144.088 15.6388 143.773 15.705 143.49 15.8375C143.208 15.97 142.965 16.1488 142.761 16.374C142.564 16.5992 142.409 16.8642 142.298 17.1689C142.193 17.4736 142.14 17.7949 142.14 18.1327Z" fill="#323232"/>
<path d="M150.716 15.5493V13.2342H152.47V12.3797C152.47 11.4987 152.592 10.8032 152.835 10.2931C153.078 9.78306 153.373 9.40218 153.722 9.15046C154.07 8.89874 154.448 8.73977 154.855 8.67353C155.269 8.60728 155.65 8.57416 155.998 8.57416C156.471 8.57416 156.846 8.60066 157.122 8.65365C157.397 8.70665 157.631 8.76626 157.821 8.8325V11.0781C157.657 11.0383 157.503 11.0085 157.358 10.9886C157.22 10.9621 157.043 10.9489 156.826 10.9489C156.662 10.9489 156.504 10.9621 156.353 10.9886C156.202 11.0085 156.064 11.0615 155.939 11.1476C155.821 11.2337 155.722 11.3596 155.643 11.5252C155.571 11.6842 155.535 11.9061 155.535 12.1909V13.2342H157.821V15.5493H155.555V23.0412H152.47V15.5493H150.716Z" fill="#323232"/>
<path d="M163.818 15.917C163.818 14.9432 163.982 14.0059 164.31 13.105C164.639 12.1975 165.122 11.3993 165.759 10.7104C166.396 10.0149 167.181 9.46179 168.114 9.0511C169.054 8.64041 170.128 8.43506 171.337 8.43506C172.375 8.43506 173.308 8.58741 174.135 8.89212C174.963 9.19683 175.679 9.61746 176.284 10.154C176.888 10.6839 177.371 11.3099 177.732 12.0319C178.1 12.754 178.33 13.519 178.422 14.3272H175.012C174.934 13.9099 174.799 13.5257 174.608 13.1746C174.424 12.8169 174.175 12.5089 173.859 12.2505C173.551 11.9856 173.189 11.7802 172.775 11.6345C172.368 11.4821 171.905 11.406 171.386 11.406C170.716 11.406 170.115 11.5318 169.582 11.7835C169.057 12.0286 168.613 12.3598 168.252 12.7771C167.891 13.1878 167.615 13.6681 167.424 14.2179C167.234 14.7677 167.139 15.334 167.139 15.917C167.139 16.5396 167.244 17.1259 167.454 17.6757C167.664 18.2255 167.953 18.7057 168.321 19.1164C168.696 19.5205 169.142 19.8417 169.661 20.0802C170.187 20.3187 170.775 20.4379 171.425 20.4379C172.378 20.4379 173.156 20.1961 173.761 19.7126C174.365 19.229 174.769 18.6362 174.973 17.934H178.442C178.31 18.6958 178.051 19.4045 177.663 20.0603C177.282 20.7161 176.793 21.2957 176.195 21.7992C175.597 22.3026 174.891 22.6967 174.076 22.9816C173.262 23.2664 172.365 23.4088 171.386 23.4088C170.203 23.4088 169.142 23.2068 168.203 22.8027C167.27 22.392 166.475 21.8455 165.818 21.1632C165.168 20.4743 164.672 19.6794 164.33 18.7786C163.988 17.8777 163.818 16.9238 163.818 15.917Z" fill="#323232"/>
<path d="M179.824 18.1327C179.824 17.4306 179.945 16.7682 180.188 16.1455C180.438 15.5228 180.796 14.9763 181.263 14.506C181.729 14.0357 182.294 13.6615 182.958 13.3833C183.621 13.105 184.377 12.9659 185.224 12.9659C186.072 12.9659 186.827 13.105 187.491 13.3833C188.161 13.6615 188.726 14.0357 189.186 14.506C189.652 14.9763 190.007 15.5228 190.25 16.1455C190.493 16.7682 190.615 17.4306 190.615 18.1327C190.615 18.8349 190.493 19.5006 190.25 20.1299C190.007 20.7525 189.652 21.299 189.186 21.7693C188.726 22.2397 188.161 22.6139 187.491 22.8921C186.827 23.1703 186.072 23.3094 185.224 23.3094C184.377 23.3094 183.621 23.1703 182.958 22.8921C182.294 22.6139 181.729 22.2397 181.263 21.7693C180.796 21.299 180.438 20.7525 180.188 20.1299C179.945 19.5072 179.824 18.8415 179.824 18.1327ZM182.908 18.1327C182.908 18.4838 182.961 18.8117 183.066 19.1164C183.178 19.4145 183.332 19.6794 183.529 19.9113C183.733 20.1365 183.976 20.3154 184.258 20.4478C184.541 20.5737 184.856 20.6366 185.204 20.6366C185.553 20.6366 185.871 20.5737 186.16 20.4478C186.456 20.3154 186.702 20.1365 186.899 19.9113C187.103 19.6794 187.261 19.4145 187.372 19.1164C187.491 18.8183 187.55 18.4904 187.55 18.1327C187.55 17.7949 187.491 17.4736 187.372 17.1689C187.261 16.8642 187.103 16.5992 186.899 16.374C186.702 16.1488 186.459 15.97 186.17 15.8375C185.881 15.705 185.559 15.6388 185.204 15.6388C184.856 15.6388 184.541 15.705 184.258 15.8375C183.976 15.97 183.733 16.1488 183.529 16.374C183.332 16.5992 183.178 16.8642 183.066 17.1689C182.961 17.4736 182.908 17.7949 182.908 18.1327Z" fill="#323232"/>
<path d="M192.066 18.1327C192.066 17.3974 192.181 16.7152 192.411 16.0859C192.647 15.4566 192.972 14.9167 193.386 14.4663C193.807 14.0092 194.296 13.6482 194.855 13.3833C195.413 13.1183 196.017 12.9858 196.668 12.9858C197.397 12.9858 198.028 13.1415 198.56 13.4528C199.099 13.7641 199.503 14.1583 199.772 14.6352V8.79276H202.856V23.0412H199.772V21.66C199.529 22.1105 199.138 22.4947 198.599 22.8126C198.061 23.1306 197.417 23.2896 196.668 23.2896C196.024 23.2896 195.42 23.1571 194.855 22.8921C194.296 22.6272 193.807 22.2662 193.386 21.8091C192.972 21.352 192.647 20.8089 192.411 20.1796C192.181 19.5503 192.066 18.868 192.066 18.1327ZM195.13 18.1327C195.13 18.4705 195.186 18.7951 195.298 19.1065C195.416 19.4112 195.574 19.6761 195.771 19.9014C195.975 20.1199 196.218 20.2988 196.5 20.4379C196.783 20.5704 197.098 20.6366 197.446 20.6366C197.794 20.6366 198.11 20.5704 198.392 20.4379C198.681 20.2988 198.924 20.1199 199.122 19.9014C199.325 19.6761 199.483 19.4112 199.595 19.1065C199.713 18.8018 199.772 18.4772 199.772 18.1327C199.772 17.7949 199.713 17.4769 199.595 17.1789C199.483 16.8808 199.325 16.6158 199.122 16.384C198.924 16.1521 198.685 15.97 198.402 15.8375C198.12 15.705 197.801 15.6388 197.446 15.6388C197.098 15.6388 196.783 15.705 196.5 15.8375C196.218 15.97 195.975 16.1521 195.771 16.384C195.574 16.6158 195.416 16.8808 195.298 17.1789C195.186 17.4769 195.13 17.7949 195.13 18.1327Z" fill="#323232"/>
<path d="M204.958 18.1327C204.958 17.4107 205.066 16.7384 205.283 16.1157C205.506 15.493 205.835 14.9498 206.269 14.4862C206.709 14.0159 207.244 13.6449 207.875 13.3733C208.512 13.1017 209.241 12.9659 210.063 12.9659C210.844 12.9659 211.547 13.0885 212.171 13.3336C212.796 13.5787 213.324 13.9165 213.758 14.3471C214.198 14.771 214.537 15.2777 214.773 15.8673C215.01 16.4568 215.128 17.0927 215.128 17.775C215.128 17.9671 215.121 18.1327 215.108 18.2718C215.095 18.4109 215.069 18.6163 215.029 18.8879H208.062C208.062 19.186 208.098 19.4675 208.17 19.7324C208.249 19.9974 208.368 20.2292 208.525 20.428C208.689 20.6267 208.906 20.7824 209.176 20.895C209.445 21.0076 209.774 21.0639 210.161 21.0639C210.713 21.0639 211.127 20.9579 211.403 20.7459C211.679 20.5273 211.869 20.2624 211.974 19.951H215.01C214.931 20.4147 214.763 20.8486 214.507 21.2527C214.257 21.6567 213.932 22.0111 213.531 22.3158C213.131 22.6205 212.651 22.8623 212.093 23.0412C211.534 23.22 210.903 23.3094 210.201 23.3094C209.353 23.3094 208.601 23.177 207.944 22.912C207.293 22.647 206.745 22.2794 206.298 21.8091C205.858 21.3388 205.523 20.789 205.293 20.1597C205.07 19.5304 204.958 18.8547 204.958 18.1327ZM208.062 17.0994H212.102C212.102 16.5032 211.915 16.0329 211.541 15.6884C211.173 15.3374 210.687 15.1618 210.082 15.1618C209.504 15.1618 209.021 15.3307 208.634 15.6686C208.253 15.9998 208.062 16.4767 208.062 17.0994Z" fill="#323232"/>
</svg>
